<svg width="16" height="16" viewBox="0 0 16 16" fill="none" xmlns="http://www.w3.org/2000/svg">
  <path fill-rule="evenodd" clip-rule="evenodd"
    d="M10.7574 12.1716C9.96697 12.6951 9.01909 13 8 13C5.23858 13 3 10.7614 3 8C3 6.98091 3.30488 6.03303 3.82841 5.24259L10.7574 12.1716ZM12.1716 10.7574L5.24263 3.82839C6.03306 3.30487 6.98093 3 8 3C10.7614 3 13 5.23858 13 8C13 9.01907 12.6951 9.96694 12.1716 10.7574ZM13.6064 12.1922C14.4816 11.0236 15 9.57233 15 8C15 4.13401 11.866 1 8 1C4.13401 1 1 4.13401 1 8C1 11.866 4.13401 15 8 15C9.57234 15 11.0236 14.4816 12.1922 13.6064L12.1924 13.6066L12.1938 13.6052C12.7287 13.2043 13.2043 12.7287 13.6052 12.1938L13.6066 12.1924L13.6064 12.1922Z"
    fill="currentColor" />
</svg>