<svg width="16" height="16" viewBox="0 0 16 16" fill="none" xmlns="http://www.w3.org/2000/svg">
  <path d="M4.46447 6.22182L8 2.68629L11.5355 6.22182L8 6.22182L4.46447 6.22182Z" fill="#1B1D1E"/>
  <path fill-rule="evenodd" clip-rule="evenodd" d="M7.99992 15C7.44763 15 6.99992 14.5523 6.99992 14L6.99992 7.22183L4.46438 7.22183C4.05992 7.22183 3.69529 6.97819 3.54051 6.60451C3.38572 6.23084 3.47128 5.80072 3.75728 5.51472L7.29281 1.97919C7.68334 1.58866 8.3165 1.58866 8.70703 1.97919L12.2426 5.51472C12.5286 5.80072 12.6141 6.23084 12.4593 6.60451C12.3046 6.97819 11.9399 7.22183 11.5355 7.22183L8.99992 7.22183L8.99992 14C8.99992 14.5523 8.5522 15 7.99992 15Z" fill="currentColor"/>
</svg>
