<svg width="16" height="16" viewBox="0 0 16 16" fill="none"
  xmlns="http://www.w3.org/2000/svg">
  <path fill-rule="evenodd" clip-rule="evenodd" d="M4.15369 14.3668C2.78011 14.4141 1.43034 13.9022 0.0584537 12.5303L1.11912 11.4697C2.24723 12.5978 3.20996 12.8984 4.102 12.8676C5.06094 12.8346 6.03653 12.4216 7.21316 11.881C7.29272 11.8444 7.37294 11.8074 7.45385 11.7701C9.69366 10.7363 12.4562 9.46137 15.9444 11.3396L15.2332 12.6604C12.411 11.1407 10.2783 12.1219 7.99408 13.1729C7.9426 13.1966 7.89105 13.2203 7.83941 13.244C6.70354 13.7659 5.46038 14.3217 4.15369 14.3668Z" fill="currentColor"/>
  <path d="M8.00041 10L3.67029 1.75L12.3305 1.75L8.00041 10Z" fill="currentColor"/>
</svg>
