<svg width="16" height="16" viewBox="0 0 16 16" fill="none"
  xmlns="http://www.w3.org/2000/svg">
  <path d="M14.5 11C14.5 12.933 12.933 14.5 11 14.5L5 14.5C3.067 14.5 1.5 12.933 1.5 11L1.5 5C1.5 3.067 3.067 1.5 5 1.5L11 1.5C12.933 1.5 14.5 3.067 14.5 5L14.5 11ZM8 3.5C5.51472 3.5 3.5 5.51472 3.5 8C3.5 10.4853 5.51472 12.5 8 12.5C10.4853 12.5 12.5 10.4853 12.5 8C12.5 5.51472 10.4853 3.5 8 3.5Z" fill="currentColor" stroke="currentColor"/>
  <path fill-rule="evenodd" clip-rule="evenodd" d="M8.33333 6.33333C7.22876 6.33333 6.33333 7.22876 6.33333 8.33333C6.33333 8.70152 6.03486 9 5.66667 9C5.29848 9 5 8.70152 5 8.33333C5 6.49238 6.49238 5 8.33333 5C8.70152 5 9 5.29848 9 5.66667C9 6.03486 8.70152 6.33333 8.33333 6.33333Z" fill="currentColor"/>
</svg>
