<svg width="16" height="16" viewBox="0 0 16 16" fill="none"
  xmlns="http://www.w3.org/2000/svg">
  <path d="M2 12.5L8 12.5L8 15.5L2 15.5L2 12.5Z" fill="currentColor"/>
  <path fill-rule="evenodd" clip-rule="evenodd" d="M13 0.5L1 0.5L1 10.5L14 10.5C14.5523 10.5 15 10.0523 15 9.5L15 2.5C15 1.39543 14.1046 0.5 13 0.5ZM10 9.5C12.2091 9.5 14 7.70914 14 5.5C14 3.29086 12.2091 1.5 10 1.5C7.79086 1.5 6 3.29086 6 5.5C6 7.70914 7.79086 9.5 10 9.5Z" fill="currentColor"/>
  <path opacity="0.1" fill-rule="evenodd" clip-rule="evenodd" d="M14 5.5C14 6.10691 13.8648 6.68225 13.623 7.19756C13.4124 6.62373 12.8612 6.21431 12.2144 6.21431C11.3859 6.21431 10.7144 6.88588 10.7144 7.71431C10.7144 8.36115 11.1238 8.91237 11.6976 9.12293C11.1823 9.36482 10.6069 9.5 10 9.5C7.79086 9.5 6 7.70914 6 5.5C6 3.29086 7.79086 1.5 10 1.5C12.2091 1.5 14 3.29086 14 5.5ZM8.33333 5.83333C8.33333 4.72877 9.22876 3.83333 10.3333 3.83333C10.7015 3.83333 11 3.53486 11 3.16667C11 2.79848 10.7015 2.5 10.3333 2.5C8.49238 2.5 7 3.99238 7 5.83333C7 6.20152 7.29848 6.5 7.66667 6.5C8.03486 6.5 8.33333 6.20152 8.33333 5.83333Z" fill="currentColor"/>
</svg>
