<svg width="16" height="16" viewBox="0 0 16 16" fill="none"
  xmlns="http://www.w3.org/2000/svg">
  <path fill-rule="evenodd" clip-rule="evenodd" d="M6.34313 14.2427L1.70708 9.6066C1.31655 9.21608 1.31655 8.58292 1.70708 8.19239L8.26991 1.62956C8.45744 1.44203 8.7118 1.33667 8.97701 1.33667H13.6131C14.1653 1.33667 14.6131 1.78438 14.6131 2.33667V6.97272C14.6131 7.23794 14.5077 7.49229 14.3202 7.67982L7.75734 14.2427C7.36682 14.6332 6.73365 14.6332 6.34313 14.2427ZM13 4.5C13 5.32843 12.3284 6 11.5 6C10.6716 6 10 5.32843 10 4.5C10 3.67157 10.6716 3 11.5 3C12.3284 3 13 3.67157 13 4.5ZM3.46443 8.29289C3.07391 8.68342 3.07391 9.31658 3.46443 9.70711L6.29286 12.5355C6.68338 12.9261 7.31655 12.9261 7.70707 12.5355L10.5355 9.70711C10.926 9.31658 10.926 8.68342 10.5355 8.29289L7.70707 5.46447C7.31655 5.07394 6.68338 5.07394 6.29286 5.46447L3.46443 8.29289Z" fill="currentColor"/>
</svg>
