<svg width="16" height="16" viewBox="0 0 16 16" fill="none"
  xmlns="http://www.w3.org/2000/svg">
  <path d="M3.84615 16L13.1538 16C13.3783 16 13.5935 15.9034 13.7522 15.7315C13.9109 15.5596 14 15.3265 14 15.0833L14 7.75015C14 7.50704 13.9109 7.27388 13.7522 7.10198C13.5935 6.93007 13.3783 6.8335 13.1538 6.8335L10.0072 6.83006L9.22558 5.44534C9.15058 5.30982 9.04452 5.19759 8.91768 5.11956C8.79085 5.04153 8.64755 5.00035 8.50169 5C8.35583 4.99966 8.21236 5.04016 8.08522 5.11759C7.95807 5.19502 7.85155 5.30674 7.77601 5.44191L6.9912 6.8335L3.84615 6.8335C3.62174 6.8335 3.40652 6.93007 3.24783 7.10198C3.08915 7.27388 3 7.50703 3 7.75014L3 15.0833C3 15.3265 3.08915 15.5596 3.24783 15.7315C3.40652 15.9034 3.62174 16 3.84615 16ZM6.80769 10.0418H10.1923C10.3045 10.0418 10.4121 10.0901 10.4915 10.176C10.5708 10.262 10.6154 10.3785 10.6154 10.5001C10.6154 10.6217 10.5708 10.7382 10.4915 10.8242C10.4121 10.9101 10.3045 10.9584 10.1923 10.9584L6.80769 10.9584C6.69548 10.9584 6.58787 10.9101 6.50853 10.8242C6.42919 10.7382 6.38461 10.6217 6.38461 10.5001C6.38461 10.3785 6.42919 10.262 6.50853 10.176C6.58787 10.0901 6.69548 10.0418 6.80769 10.0418ZM6.80769 11.8751H10.1923C10.3045 11.8751 10.4121 11.9234 10.4915 12.0093C10.5708 12.0953 10.6154 12.2118 10.6154 12.3334C10.6154 12.455 10.5708 12.5715 10.4915 12.6575C10.4121 12.7434 10.3045 12.7917 10.1923 12.7917H6.80769C6.69548 12.7917 6.58787 12.7434 6.50853 12.6575C6.42919 12.5715 6.38461 12.455 6.38461 12.3334C6.38461 12.2118 6.42919 12.0953 6.50853 12.0093C6.58787 11.9234 6.69548 11.8751 6.80769 11.8751Z" fill="currentColor"/>
  <path fill-rule="evenodd" clip-rule="evenodd" d="M15.75 0V0.571429C15.75 2.09021 14.5188 3.32143 13 3.32143H3C2.30964 3.32143 1.75 3.88107 1.75 4.57143V6H0.25V4.57143C0.25 3.05264 1.48122 1.82143 3 1.82143H13C13.6904 1.82143 14.25 1.26178 14.25 0.571429V0H15.75Z" fill="currentColor"/>
</svg>
