<svg width="16" height="16" viewBox="0 0 16 16" fill="none" xmlns="http://www.w3.org/2000/svg">
  <path
    d="m15.73,12.69L9.72,1.1c-.76-1.47-2.67-1.47-3.44,0L.27,12.69c-.76,1.47.19,3.31,1.72,3.31h12.03c1.53,0,2.48-1.84,1.72-3.31Zm-6.96.79c-.11.2-.25.36-.43.47-.18.12-.37.17-.58.17-.33,0-.61-.13-.84-.38-.23-.26-.35-.57-.34-.94,0-.36.11-.66.34-.92.23-.25.51-.38.84-.38.31,0,.58.13.82.38.24.25.36.56.36.92,0,.24-.06.47-.17.67Zm2.09-5.61c-.12.29-.28.54-.49.76-.21.22-.45.41-.72.59-.2.13-.37.27-.51.41-.14.14-.24.3-.31.47-.07.18-.11.39-.11.64v.23h-2v-.23c0-.52.04-.93.11-1.24.07-.31.18-.55.33-.74.14-.19.32-.36.53-.51.18-.13.34-.26.48-.38.14-.12.26-.25.34-.39.08-.14.13-.29.13-.47,0-.16-.03-.29-.1-.41-.07-.12-.16-.21-.27-.28-.12-.07-.24-.1-.38-.1-.15,0-.29.04-.42.12-.13.08-.23.19-.31.32-.08.14-.11.3-.11.48h-2.16c0-.69.15-1.25.42-1.68.28-.43.64-.75,1.1-.95.46-.2.96-.31,1.5-.31.6,0,1.14.1,1.61.3.47.19.85.49,1.12.88.27.39.41.88.41,1.47,0,.38-.06.71-.18,1Z"
    fill="currentColor" />
</svg>