<svg width="16" height="16" viewBox="0 0 16 16" fill="none" xmlns="http://www.w3.org/2000/svg">
  <path
    d="m15,11.99L9.55,2.87c-.69-1.16-2.42-1.16-3.11,0L1,11.99c-.69,1.16.17,2.61,1.56,2.61h10.89c1.38,0,2.25-1.45,1.56-2.61Zm-6.3.98c-.1.16-.23.28-.39.37-.16.09-.34.14-.52.14-.3,0-.55-.1-.76-.3-.21-.2-.31-.45-.31-.74,0-.28.1-.52.31-.72.21-.2.47-.3.76-.3.28,0,.53.1.74.3.22.2.33.44.33.72,0,.19-.05.37-.16.53Zm1.89-4.42c-.1.22-.25.42-.44.6-.19.17-.4.33-.65.47-.18.1-.34.21-.46.32-.12.11-.22.23-.28.37-.06.14-.1.31-.1.5v.18h-1.81v-.18c0-.41.03-.73.1-.97.07-.24.16-.44.29-.58.13-.15.29-.28.48-.4.16-.1.31-.2.44-.3.13-.1.23-.2.31-.31.08-.11.11-.23.11-.37,0-.12-.03-.23-.09-.33s-.14-.17-.25-.22c-.1-.05-.22-.08-.35-.08-.14,0-.27.03-.38.09-.11.06-.21.15-.28.26-.07.11-.1.23-.1.38h-1.96c0-.54.13-.98.38-1.32.25-.34.58-.59,1-.75.41-.16.87-.24,1.36-.24.55,0,1.03.08,1.46.23.43.15.77.39,1.01.7.25.31.37.69.37,1.16,0,.3-.05.56-.16.79Z"
    fill="currentColor" />
</svg>