<svg width="16" height="16" viewBox="0 0 16 16" fill="none"
  xmlns="http://www.w3.org/2000/svg">
  <path fill-rule="evenodd" clip-rule="evenodd" d="M8.00117 10.9421C9.06019 10.9421 9.9187 10.0725 9.9187 8.99969C9.9187 7.92691 9.06019 7.05725 8.00117 7.05725C6.94215 7.05725 6.08364 7.92691 6.08364 8.99969C6.08364 10.0725 6.94215 10.9421 8.00117 10.9421ZM7.1673 8.99973C7.1673 8.5333 7.54056 8.15519 8.00101 8.15519C8.46145 8.15519 8.83472 8.5333 8.83472 8.99973C8.83472 9.46615 8.46145 9.84427 8.00101 9.84427C7.54056 9.84427 7.1673 9.46615 7.1673 8.99973Z" fill="currentColor"/>
  <path fill-rule="evenodd" clip-rule="evenodd" d="M2.07692 15L13.9231 15C14.2087 15 14.4826 14.8771 14.6846 14.6583C14.8865 14.4395 15 14.1428 15 13.8334L15 4.50019C15 4.19077 14.8865 3.89403 14.6846 3.67524C14.4826 3.45645 14.2087 3.33354 13.9231 3.33354L9.91827 3.32916L8.92346 1.5668C8.82801 1.39431 8.69303 1.25148 8.5316 1.15217C8.37017 1.05286 8.18779 1.00044 8.00215 1C7.81651 0.999563 7.63392 1.05112 7.47209 1.14966C7.31027 1.2482 7.1747 1.39039 7.07856 1.56242L6.07971 3.33354L2.07692 3.33354C1.79131 3.33354 1.51739 3.45645 1.31542 3.67524C1.11346 3.89403 1 4.19077 1 4.50018V13.8334C1 14.1428 1.11346 14.4395 1.31542 14.6583C1.51739 14.8771 1.79131 15 2.07692 15ZM8.00019 12.1246C6.16603 12.1508 4.33729 10.8519 3.23513 9.62307C2.9219 9.26912 2.92136 8.73323 3.23388 8.37864C4.32437 7.1625 6.12685 5.875 7.93891 5.875H8.0673C9.87312 5.875 11.6764 7.1625 12.7657 8.37822C13.0786 8.73263 13.0786 9.26866 12.7657 9.62307C11.6631 10.8515 9.83435 12.1512 8.00019 12.1246Z" fill="currentColor"/>
</svg>
