<svg width="16" height="16" viewBox="0 0 16 16" fill="none"
  xmlns="http://www.w3.org/2000/svg">
  <path fill-rule="evenodd" clip-rule="evenodd" d="M1.70708 9.6066L6.34313 14.2427C6.73365 14.6332 7.36682 14.6332 7.75734 14.2427L14.3202 7.67982C14.5077 7.49229 14.6131 7.23794 14.6131 6.97272V2.33667C14.6131 1.78438 14.1653 1.33667 13.6131 1.33667H8.97701C8.7118 1.33667 8.45744 1.44203 8.26991 1.62956L1.70708 8.19239C1.31655 8.58292 1.31655 9.21608 1.70708 9.6066ZM11.5 6.00002C12.3284 6.00002 13 5.32844 13 4.50002C13 3.67159 12.3284 3.00002 11.5 3.00002C10.6716 3.00002 9.99998 3.67159 9.99998 4.50002C9.99998 5.32844 10.6716 6.00002 11.5 6.00002Z" fill="currentColor"/>
</svg>
