<svg width="16" height="16" viewBox="0 0 16 16" fill="none"
  xmlns="http://www.w3.org/2000/svg">
  <path fill-rule="evenodd" clip-rule="evenodd" d="M12.7071 3.29289C13.0976 3.68342 13.0976 4.31658 12.7071 4.70711L5.70711 11.7071C5.31658 12.0976 4.68342 12.0976 4.29289 11.7071C3.90237 11.3166 3.90237 10.6834 4.29289 10.2929L11.2929 3.29289C11.6834 2.90237 12.3166 2.90237 12.7071 3.29289Z" fill="currentColor"/>
  <path fill-rule="evenodd" clip-rule="evenodd" d="M5 5C5.55228 5 6 5.44772 6 6V10H10C10.5523 10 11 10.4477 11 11C11 11.5523 10.5523 12 10 12H5C4.44772 12 4 11.5523 4 11V6C4 5.44772 4.44772 5 5 5Z" fill="currentColor"/>
</svg>
