<svg width="16" height="16" viewBox="0 0 16 16" fill="none"
  xmlns="http://www.w3.org/2000/svg">
  <path d="M0.5 2C0.5 1.17157 1.17157 0.5 2 0.5H14C14.8284 0.5 15.5 1.17157 15.5 2V14C15.5 14.8284 14.8284 15.5 14 15.5H2C1.17157 15.5 0.5 14.8284 0.5 14V2Z" stroke="currentColor" stroke-linecap="round" stroke-linejoin="round"/>
  <path d="M1 2C1 1.44772 1.44772 1 2 1H14C14.5523 1 15 1.44772 15 2V3H1V2Z" fill="currentColor" stroke="currentColor" stroke-width="2" stroke-linecap="round" stroke-linejoin="round"/>
  <rect x="3" y="10" width="2" height="2" rx="0.5" fill="currentColor"/>
  <rect x="3" y="6" width="2" height="2" rx="0.5" fill="currentColor"/>
  <rect x="7" y="10" width="2" height="2" rx="0.5" fill="currentColor"/>
  <rect x="7" y="6" width="2" height="2" rx="0.5" fill="currentColor"/>
  <rect x="11" y="6" width="2" height="2" rx="0.5" fill="currentColor"/>
</svg>
