<svg width="16" height="16" viewBox="0 0 16 16" fill="none"
  xmlns="http://www.w3.org/2000/svg">
  <path fill-rule="evenodd" clip-rule="evenodd" d="M5 10L7 14.5C7 14.7761 7.44772 15 8 15C8.55228 15 9 14.7761 9 14.5L11 10H5Z" fill="#293137"/>
  <rect x="5" y="3" width="6" height="6.8" fill="#545F64"/>
  <ellipse cx="8" cy="9.8" rx="3" ry="1.7" fill="#545F64"/>
  <path fill-rule="evenodd" clip-rule="evenodd" d="M13 5H15V14.5C15 14.7761 14.5523 15 14 15C13.4477 15 13 14.7761 13 14.5V5Z" fill="#222829"/>
  <path fill-rule="evenodd" clip-rule="evenodd" d="M1 5H3V14.5C3 14.7761 2.55228 15 2 15C1.44772 15 1 14.7761 1 14.5V5Z" fill="#222829"/>
  <ellipse cx="8" cy="5" rx="7" ry="2" fill="#969696"/>
  <rect x="1" y="3" width="14" height="2" fill="#969696"/>
  <ellipse cx="8" cy="3" rx="7" ry="2" fill="#BCBCBC"/>
</svg>
