<svg width="16" height="16" viewBox="0 0 16 16" fill="none"
  xmlns="http://www.w3.org/2000/svg">
  <mask id="path-1-inside-1_569:2695" fill="white">
    <path fill-rule="evenodd" clip-rule="evenodd" d="M2 1C1.44772 1 1 1.44772 1 2L1 14C1 14.5523 1.44772 15 2 15H14C14.5523 15 15 14.5523 15 14V2C15 1.44772 14.5523 1 14 1L2 1ZM5 4C4.44772 4 4 4.44772 4 5L4 11C4 11.5523 4.44772 12 5 12H11C11.5523 12 12 11.5523 12 11V5C12 4.44772 11.5523 4 11 4H5Z"/>
  </mask>
  <path fill-rule="evenodd" clip-rule="evenodd" d="M2 1C1.44772 1 1 1.44772 1 2L1 14C1 14.5523 1.44772 15 2 15H14C14.5523 15 15 14.5523 15 14V2C15 1.44772 14.5523 1 14 1L2 1ZM5 4C4.44772 4 4 4.44772 4 5L4 11C4 11.5523 4.44772 12 5 12H11C11.5523 12 12 11.5523 12 11V5C12 4.44772 11.5523 4 11 4H5Z" fill="currentColor"/>
  <path d="M2 2V2V0C0.89543 0 0 0.895431 0 2H2ZM2 14L2 2H0L0 14H2ZM2 14H2H0C0 15.1046 0.895431 16 2 16V14ZM14 14H2V16H14V14ZM14 14V16C15.1046 16 16 15.1046 16 14H14ZM14 2V14H16V2H14ZM14 2H16C16 0.89543 15.1046 0 14 0V2ZM2 2L14 2V0L2 0V2ZM5 5V3C3.89543 3 3 3.89543 3 5H5ZM5 11V5H3L3 11H5ZM5 11H3C3 12.1046 3.89543 13 5 13L5 11ZM11 11H5L5 13H11V11ZM11 11V13C12.1046 13 13 12.1046 13 11H11ZM11 5V11H13V5H11ZM11 5H13C13 3.89543 12.1046 3 11 3V5ZM5 5L11 5V3L5 3V5Z" fill="currentColor" mask="url(#path-1-inside-1_569:2695)"/>
  <path fill-rule="evenodd" clip-rule="evenodd" d="M5 5.5C5 5.22386 5.22386 5 5.5 5H8.5C8.77614 5 9 5.22386 9 5.5C9 5.77614 8.77614 6 8.5 6H5.5C5.22386 6 5 5.77614 5 5.5Z" fill="currentColor"/>
  <path fill-rule="evenodd" clip-rule="evenodd" d="M5 7.5C5 7.22386 5.22386 7 5.5 7H6.5C6.77614 7 7 7.22386 7 7.5C7 7.77614 6.77614 8 6.5 8H5.5C5.22386 8 5 7.77614 5 7.5Z" fill="currentColor"/>
</svg>
