<svg width="16" height="16" viewBox="0 0 16 16" fill="none"
  xmlns="http://www.w3.org/2000/svg">
  <g clip-path="url(#clip0_3577:8864)">
    <path fill-rule="evenodd" clip-rule="evenodd" d="M12.2564 1.87015C12.6949 1.32193 12.4297 0.51218 11.7287 0.551605C10.7816 0.604874 9.84987 0.993282 9.12633 1.71683C7.56423 3.27892 7.56423 5.81158 9.12633 7.37368C10.6884 8.93578 13.2211 8.93578 14.7832 7.37368C15.5067 6.65014 15.8951 5.71836 15.9484 4.77126C15.9878 4.0703 15.1781 3.80507 14.6299 4.24365L12.8894 5.63604C12.4915 5.95435 11.9179 5.92259 11.5576 5.56228L10.9377 4.94244C10.5774 4.58214 10.5457 4.00853 10.864 3.61064L12.2564 1.87015Z" fill="currentColor"/>
    <path fill-rule="evenodd" clip-rule="evenodd" d="M11.2476 5.25236C12.0287 6.03341 12.0287 7.29974 11.2476 8.08079L7.73847 11.59C7.3362 11.9922 7.15968 12.5567 7.0237 13.1091C6.89729 13.6226 6.63347 14.1092 6.23223 14.5104C5.06066 15.682 3.16117 15.682 1.98959 14.5104C0.818021 13.3388 0.818021 11.4393 1.98959 10.2678C2.39083 9.86654 2.87743 9.60272 3.39094 9.47631C3.94334 9.34033 4.50777 9.16381 4.91004 8.76154L8.41922 5.25236C9.20027 4.47132 10.4666 4.47131 11.2476 5.25236ZM2.6967 13.8033C3.47775 14.5844 4.74408 14.5844 5.52513 13.8033C6.30618 13.0223 6.30618 11.7559 5.52513 10.9749C4.74408 10.1938 3.47775 10.1938 2.6967 10.9749C1.91565 11.7559 1.91565 13.0223 2.6967 13.8033Z" fill="currentColor"/>
  </g>
  <defs>
    <clip-path id="clip0_3577:8864">
      <rect width="16" height="16" fill="white"/>
    </clip-path>
  </defs>
</svg>
